<svg xmlns="http://www.w3.org/2000/svg" viewBox="0 0 24 24"><circle cx="12" cy="12" r="12" fill="#107C10"/><path fill="#fff" d="M6.21 4.896C7.588 3.832 9.24 3.18 11.04 3.024c-1.272 1.056-2.652 2.7-3.756 4.572C5.832 9.804 4.8 12.252 4.8 14.16c0 1.104.228 2.196.672 3.204C4.14 15.996 3.6 14.364 3.6 12.6c0-3.0 1.08-5.748 2.61-7.704zM12 4.2c1.2 1.104 3.456 3.996 3.456 7.8 0 2.136-.864 4.104-2.256 5.52A7.63 7.63 0 0 1 12 17.88a7.63 7.63 0 0 1-1.2-.36C9.408 16.104 8.544 14.136 8.544 12c0-3.804 2.256-6.696 3.456-7.8zm5.79.696C19.32 6.852 20.4 9.6 20.4 12.6c0 1.764-.54 3.396-1.872 4.764A8.375 8.375 0 0 0 19.2 14.16c0-1.908-1.032-4.356-2.484-6.564C15.612 5.724 14.232 4.08 12.96 3.024c1.8.156 3.452.808 4.83 1.872z"/></svg>
