<svg xmlns="http://www.w3.org/2000/svg" viewBox="0 0 24 24"><rect width="24" height="24" rx="5" fill="#010101"/><path fill="#FE2C55" d="M19.59 6.69a4.83 4.83 0 01-3.77-4.25V2h-3.45v13.67a2.89 2.89 0 01-2.88 2.5 2.89 2.89 0 01-2.89-2.89 2.89 2.89 0 012.89-2.89c.28 0 .54.04.79.1V9.01a6.33 6.33 0 00-.79-.05 6.34 6.34 0 00-6.34 6.34 6.34 6.34 0 006.34 6.34 6.34 6.34 0 006.33-6.34V8.95a8.16 8.16 0 004.77 1.52V7.01a4.85 4.85 0 01-1-.32z"/><path fill="#69C9D0" d="M18.59 5.69a4.83 4.83 0 01-3.77-4.25V1h-3.45v13.67a2.89 2.89 0 01-2.88 2.5 2.89 2.89 0 01-2.89-2.89 2.89 2.89 0 012.89-2.89c.28 0 .54.04.79.1V8.01a6.33 6.33 0 00-.79-.05 6.34 6.34 0 00-6.34 6.34 6.34 6.34 0 006.34 6.34 6.34 6.34 0 006.33-6.34V7.95a8.16 8.16 0 004.77 1.52V6.01a4.85 4.85 0 01-1-.32z" opacity=".5"/></svg>
